<svg xmlns="http://www.w3.org/2000/svg" xml:space="preserve" width="256" height="256" viewBox="0 0 256 256"><g fill="none" stroke-miterlimit="10" stroke-width="0" transform="translate(1.407 1.407)scale(2.81)"><circle cx="45" cy="45" r="43" fill="#31f45a"/><path fill="#fff" d="M38.768 65.067h-.037a5.73 5.73 0 0 1-4.307-1.992l-12.88-14.957a5.733 5.733 0 1 1 8.69-7.482l8.591 9.977 20.991-23.744a5.73 5.73 0 0 1 8.092-.498 5.73 5.73 0 0 1 .498 8.093L43.063 63.13a5.73 5.73 0 0 1-4.295 1.937"/><path fill="#31f45a" d="M45 90C20.187 90 0 69.813 0 45S20.187 0 45 0s45 20.187 45 45-20.187 45-45 45m0-86C22.393 4 4 22.393 4 45s18.393 41 41 41 41-18.393 41-41S67.607 4 45 4"/><path fill="#31f45a" d="M38.768 67.066h-.038a7.74 7.74 0 0 1-5.823-2.688L20.028 49.423c-2.782-3.231-2.417-8.125.814-10.907a7.68 7.68 0 0 1 5.621-1.852 7.7 7.7 0 0 1 5.285 2.666l7.096 8.241 19.473-22.027a7.68 7.68 0 0 1 5.317-2.597 7.67 7.67 0 0 1 5.599 1.926 7.68 7.68 0 0 1 2.597 5.319 7.68 7.68 0 0 1-1.926 5.597L44.562 64.455a7.74 7.74 0 0 1-5.794 2.611M25.882 40.643c-.893 0-1.746.316-2.429.904a3.74 3.74 0 0 0-.394 5.267l12.88 14.956a3.73 3.73 0 0 0 2.805 1.297l.024 2v-2a3.73 3.73 0 0 0 2.796-1.261L66.908 33.14c.66-.748.99-1.707.93-2.702a3.72 3.72 0 0 0-1.254-2.568 3.7 3.7 0 0 0-2.703-.93 3.7 3.7 0 0 0-2.566 1.253l-22.51 25.462-10.087-11.714a3.72 3.72 0 0 0-2.836-1.298"/></g></svg>