<svg xmlns="http://www.w3.org/2000/svg" xml:space="preserve" width="256" height="256" viewBox="0 0 256 256"><g fill="none" stroke-miterlimit="10" stroke-width="0" transform="translate(1.407 1.407)scale(2.81)"><path fill="#ec0000" d="M45 90C20.187 90 0 69.813 0 45S20.187 0 45 0s45 20.187 45 45-20.187 45-45 45"/><path fill="#fff" d="M28.902 66.098a4.998 4.998 0 0 1-3.536-8.535l32.196-32.196a5 5 0 0 1 7.07 7.071L32.438 64.633a5 5 0 0 1-3.536 1.465"/><path fill="#fff" d="M61.098 66.098a4.98 4.98 0 0 1-3.535-1.465L25.367 32.438a5 5 0 1 1 7.071-7.071l32.195 32.196a4.998 4.998 0 0 1-3.535 8.535"/></g></svg>