<svg xmlns="http://www.w3.org/2000/svg" xmlns:xlink="http://www.w3.org/1999/xlink" version="1.1" width="256" height="256" viewBox="0 0 256 256" xml:space="preserve">
<g style="stroke: none; stroke-width: 0; stroke-dasharray: none; stroke-linecap: butt; stroke-linejoin: miter; stroke-miterlimit: 10; fill: none; fill-rule: nonzero; opacity: 1;" transform="translate(1.4065934065934016 1.4065934065934016) scale(2.81 2.81)">
	<path d="M 71.647 77.914 l -20.366 -8.781 c -1.992 -0.859 -2.911 -3.171 -2.052 -5.163 l 8.781 -20.366 c 0.859 -1.992 3.171 -2.911 5.163 -2.052 l 20.366 8.781 c 1.992 0.859 2.911 3.171 2.052 5.163 l -8.781 20.366 C 75.952 77.854 73.64 78.773 71.647 77.914 z" style="stroke: none; stroke-width: 1; stroke-dasharray: none; stroke-linecap: butt; stroke-linejoin: miter; stroke-miterlimit: 10; fill: rgb(226,97,97); fill-rule: nonzero; opacity: 1;" transform=" matrix(1 0 0 1 0 0) " stroke-linecap="round"/>
	<path d="M 56.94 66.883 c -1.993 -0.859 -2.911 -3.171 -2.052 -5.163 L 63.52 41.7 l -0.346 -0.149 c -1.993 -0.859 -4.304 0.06 -5.163 2.052 l -8.781 20.366 c -0.859 1.993 0.06 4.304 2.052 5.163 l 20.366 8.781 c 1.992 0.859 4.304 -0.06 5.163 -2.052 l 0.149 -0.346 L 56.94 66.883 z" style="stroke: none; stroke-width: 1; stroke-dasharray: none; stroke-linecap: butt; stroke-linejoin: miter; stroke-miterlimit: 10; fill: rgb(201,72,72); fill-rule: nonzero; opacity: 1;" transform=" matrix(1 0 0 1 0 0) " stroke-linecap="round"/>
	<path d="M 73.202 79.237 c -0.663 0 -1.324 -0.136 -1.951 -0.406 l -20.365 -8.78 c -2.496 -1.076 -3.65 -3.982 -2.574 -6.478 l 8.78 -20.366 c 1.075 -2.496 3.982 -3.649 6.478 -2.575 l 20.365 8.782 c 1.21 0.521 2.144 1.481 2.63 2.705 s 0.467 2.563 -0.055 3.772 l -8.781 20.365 c -0.521 1.209 -1.482 2.143 -2.705 2.629 C 74.434 79.12 73.817 79.237 73.202 79.237 z M 61.622 42.23 c -1.135 0 -2.217 0.663 -2.694 1.769 l -8.78 20.365 c -0.64 1.483 0.047 3.211 1.53 3.851 l 20.365 8.78 h 0.001 c 0.719 0.31 1.516 0.32 2.24 0.032 c 0.728 -0.289 1.298 -0.844 1.608 -1.563 L 84.674 55.1 c 0.31 -0.719 0.321 -1.515 0.032 -2.241 c -0.289 -0.728 -0.844 -1.298 -1.563 -1.608 l -20.365 -8.781 C 62.401 42.307 62.009 42.23 61.622 42.23 z" style="stroke: none; stroke-width: 1; stroke-dasharray: none; stroke-linecap: butt; stroke-linejoin: miter; stroke-miterlimit: 10; fill: rgb(0,0,0); fill-rule: nonzero; opacity: 1;" transform=" matrix(1 0 0 1 0 0) " stroke-linecap="round"/>
	<path d="M 67.41 61.229 c -0.4 0 -0.78 -0.149 -1.061 -0.439 c -0.28 -0.28 -0.439 -0.66 -0.439 -1.061 c 0 -0.1 0.01 -0.199 0.029 -0.29 c 0.021 -0.1 0.051 -0.189 0.08 -0.279 c 0.04 -0.091 0.09 -0.181 0.141 -0.261 c 0.06 -0.08 0.12 -0.159 0.189 -0.229 c 0.07 -0.07 0.15 -0.13 0.23 -0.19 c 0.08 -0.05 0.17 -0.1 0.26 -0.13 c 0.09 -0.04 0.18 -0.069 0.28 -0.09 c 0.189 -0.04 0.39 -0.04 0.58 0 c 0.1 0.021 0.189 0.05 0.279 0.09 c 0.09 0.03 0.181 0.08 0.261 0.13 c 0.079 0.061 0.159 0.12 0.229 0.19 s 0.13 0.149 0.19 0.229 c 0.05 0.08 0.1 0.17 0.13 0.261 c 0.04 0.09 0.069 0.18 0.09 0.279 c 0.02 0.091 0.03 0.19 0.03 0.29 c 0 0.4 -0.16 0.78 -0.44 1.061 C 68.189 61.08 67.81 61.229 67.41 61.229 z" style="stroke: none; stroke-width: 1; stroke-dasharray: none; stroke-linecap: butt; stroke-linejoin: miter; stroke-miterlimit: 10; fill: rgb(0,0,0); fill-rule: nonzero; opacity: 1;" transform=" matrix(1 0 0 1 0 0) " stroke-linecap="round"/>
	<path d="M 70.62 69.3 c -0.2 0 -0.4 -0.04 -0.58 -0.11 c -0.181 -0.08 -0.34 -0.189 -0.48 -0.33 c -0.29 -0.29 -0.45 -0.659 -0.45 -1.06 s 0.16 -0.78 0.45 -1.06 c 0.061 -0.07 0.141 -0.131 0.221 -0.19 c 0.079 -0.05 0.17 -0.1 0.26 -0.14 c 0.09 -0.03 0.189 -0.061 0.279 -0.08 c 0.2 -0.04 0.4 -0.04 0.591 0 c 0.1 0.02 0.189 0.05 0.279 0.08 c 0.091 0.04 0.181 0.09 0.261 0.14 c 0.08 0.06 0.159 0.12 0.229 0.19 c 0.28 0.279 0.44 0.659 0.44 1.06 s -0.16 0.77 -0.44 1.06 c -0.14 0.141 -0.31 0.25 -0.49 0.33 C 71.01 69.26 70.819 69.3 70.62 69.3 z" style="stroke: none; stroke-width: 1; stroke-dasharray: none; stroke-linecap: butt; stroke-linejoin: miter; stroke-miterlimit: 10; fill: rgb(0,0,0); fill-rule: nonzero; opacity: 1;" transform=" matrix(1 0 0 1 0 0) " stroke-linecap="round"/>
	<path d="M 64.2 53.17 c -0.4 0 -0.771 -0.16 -1.061 -0.45 c -0.14 -0.14 -0.25 -0.3 -0.32 -0.479 C 62.74 52.06 62.7 51.87 62.7 51.67 c 0 -0.4 0.159 -0.79 0.439 -1.061 c 0.561 -0.569 1.57 -0.569 2.12 0 c 0.28 0.271 0.44 0.66 0.44 1.061 c 0 0.2 -0.03 0.39 -0.11 0.57 c -0.07 0.18 -0.19 0.34 -0.33 0.479 c -0.14 0.15 -0.3 0.26 -0.479 0.33 C 64.6 53.13 64.399 53.17 64.2 53.17 z" style="stroke: none; stroke-width: 1; stroke-dasharray: none; stroke-linecap: butt; stroke-linejoin: miter; stroke-miterlimit: 10; fill: rgb(0,0,0); fill-rule: nonzero; opacity: 1;" transform=" matrix(1 0 0 1 0 0) " stroke-linecap="round"/>
	<path d="M 65.637 83.618 H 20.262 v -6.935 c 0 -3.571 2.895 -6.465 6.465 -6.465 h 32.444 c 3.571 0 6.465 2.895 6.465 6.465 V 83.618 z" style="stroke: none; stroke-width: 1; stroke-dasharray: none; stroke-linecap: butt; stroke-linejoin: miter; stroke-miterlimit: 10; fill: rgb(117,139,222); fill-rule: nonzero; opacity: 1;" transform=" matrix(1 0 0 1 0 0) " stroke-linecap="round"/>
	<path d="M 28.912 79.312 c -2.399 0 -4.344 -1.945 -4.344 -4.344 v -2.591 c 0 -0.654 0.099 -1.285 0.28 -1.88 c -2.653 0.805 -4.585 3.269 -4.585 6.186 v 6.935 h 45.375 v -4.306 H 28.912 z" style="stroke: none; stroke-width: 1; stroke-dasharray: none; stroke-linecap: butt; stroke-linejoin: miter; stroke-miterlimit: 10; fill: rgb(84,104,178); fill-rule: nonzero; opacity: 1;" transform=" matrix(1 0 0 1 0 0) " stroke-linecap="round"/>
	<path d="M 65.637 84.618 H 20.262 c -0.552 0 -1 -0.447 -1 -1 v -6.936 c 0 -4.116 3.349 -7.466 7.465 -7.466 h 32.444 c 4.116 0 7.465 3.35 7.465 7.466 v 6.936 C 66.637 84.171 66.189 84.618 65.637 84.618 z M 21.262 82.618 h 43.375 v -5.936 c 0 -3.014 -2.451 -5.466 -5.465 -5.466 H 26.728 c -3.014 0 -5.465 2.452 -5.465 5.466 V 82.618 z" style="stroke: none; stroke-width: 1; stroke-dasharray: none; stroke-linecap: butt; stroke-linejoin: miter; stroke-miterlimit: 10; fill: rgb(0,0,0); fill-rule: nonzero; opacity: 1;" transform=" matrix(1 0 0 1 0 0) " stroke-linecap="round"/>
	<polygon points="48.6,21.77 37.3,21.77 30.84,70.22 55.06,70.22 " style="stroke: none; stroke-width: 1; stroke-dasharray: none; stroke-linecap: butt; stroke-linejoin: miter; stroke-miterlimit: 10; fill: rgb(117,139,222); fill-rule: nonzero; opacity: 1;" transform="  matrix(1 0 0 1 0 0) "/>
	<path d="M 37.012 58.921 l 4.953 -37.147 H 37.3 l -6.459 48.443 h 24.215 l -0.718 -5.382 H 42.19 C 39.031 64.835 36.595 62.052 37.012 58.921 z" style="stroke: none; stroke-width: 1; stroke-dasharray: none; stroke-linecap: butt; stroke-linejoin: miter; stroke-miterlimit: 10; fill: rgb(84,104,178); fill-rule: nonzero; opacity: 1;" transform=" matrix(1 0 0 1 0 0) " stroke-linecap="round"/>
	<path d="M 55.058 71.217 H 30.842 c -0.288 0 -0.563 -0.124 -0.752 -0.341 c -0.19 -0.218 -0.277 -0.506 -0.239 -0.791 l 6.458 -48.443 c 0.066 -0.497 0.49 -0.868 0.991 -0.868 h 11.298 c 0.501 0 0.925 0.371 0.991 0.868 l 6.459 48.443 c 0.038 0.285 -0.049 0.573 -0.239 0.791 C 55.62 71.093 55.346 71.217 55.058 71.217 z M 31.984 69.217 h 21.931 l -6.192 -46.442 h -9.547 L 31.984 69.217 z" style="stroke: none; stroke-width: 1; stroke-dasharray: none; stroke-linecap: butt; stroke-linejoin: miter; stroke-miterlimit: 10; fill: rgb(0,0,0); fill-rule: nonzero; opacity: 1;" transform=" matrix(1 0 0 1 0 0) " stroke-linecap="round"/>
	<circle cx="42.953" cy="12.683" r="11.683" style="stroke: none; stroke-width: 1; stroke-dasharray: none; stroke-linecap: butt; stroke-linejoin: miter; stroke-miterlimit: 10; fill: rgb(117,139,222); fill-rule: nonzero; opacity: 1;" transform="  matrix(1 0 0 1 0 0) "/>
	<path d="M 37.576 14.919 c -1.264 -1.867 -2.003 -4.118 -2.003 -6.542 c 0 -2.12 0.573 -4.102 1.561 -5.816 c -3.503 2.017 -5.866 5.79 -5.866 10.122 c 0 2.424 0.739 4.676 2.003 6.542 h 19.359 c 0.865 -1.277 1.476 -2.737 1.781 -4.306 H 37.576 z" style="stroke: none; stroke-width: 1; stroke-dasharray: none; stroke-linecap: butt; stroke-linejoin: miter; stroke-miterlimit: 10; fill: rgb(84,104,178); fill-rule: nonzero; opacity: 1;" transform=" matrix(1 0 0 1 0 0) " stroke-linecap="round"/>
	<path d="M 42.95 25.365 c -6.994 0 -12.683 -5.689 -12.683 -12.683 S 35.956 0 42.95 0 c 6.993 0 12.682 5.689 12.682 12.683 S 49.942 25.365 42.95 25.365 z M 42.95 2 c -5.891 0 -10.683 4.792 -10.683 10.683 s 4.792 10.683 10.683 10.683 c 5.89 0 10.682 -4.792 10.682 -10.683 S 48.84 2 42.95 2 z" style="stroke: none; stroke-width: 1; stroke-dasharray: none; stroke-linecap: butt; stroke-linejoin: miter; stroke-miterlimit: 10; fill: rgb(0,0,0); fill-rule: nonzero; opacity: 1;" transform=" matrix(1 0 0 1 0 0) " stroke-linecap="round"/>
	<path d="M 53.882 26.748 H 32.017 c -2.077 0 -3.762 -1.684 -3.762 -3.762 v 0 c 0 -2.077 1.684 -3.762 3.762 -3.762 h 21.864 c 2.077 0 3.762 1.684 3.762 3.762 v 0 C 57.643 25.064 55.959 26.748 53.882 26.748 z" style="stroke: none; stroke-width: 1; stroke-dasharray: none; stroke-linecap: butt; stroke-linejoin: miter; stroke-miterlimit: 10; fill: rgb(117,139,222); fill-rule: nonzero; opacity: 1;" transform=" matrix(1 0 0 1 0 0) " stroke-linecap="round"/>
	<path d="M 36.323 22.443 c -1.891 0 -3.441 -1.4 -3.707 -3.218 h -0.599 c -2.078 0 -3.762 1.684 -3.762 3.762 c 0 2.078 1.684 3.762 3.762 3.762 h 21.864 c 2.078 0 3.762 -1.684 3.762 -3.762 c 0 -0.186 -0.029 -0.365 -0.055 -0.544 H 36.323 z" style="stroke: none; stroke-width: 1; stroke-dasharray: none; stroke-linecap: butt; stroke-linejoin: miter; stroke-miterlimit: 10; fill: rgb(84,104,178); fill-rule: nonzero; opacity: 1;" transform=" matrix(1 0 0 1 0 0) " stroke-linecap="round"/>
	<path d="M 53.882 27.749 H 32.017 c -2.625 0 -4.761 -2.136 -4.761 -4.762 s 2.136 -4.762 4.761 -4.762 h 21.865 c 2.626 0 4.762 2.136 4.762 4.762 S 56.508 27.749 53.882 27.749 z M 32.017 20.225 c -1.522 0 -2.761 1.239 -2.761 2.762 s 1.239 2.762 2.761 2.762 h 21.865 c 1.522 0 2.762 -1.239 2.762 -2.762 s -1.239 -2.762 -2.762 -2.762 H 32.017 z" style="stroke: none; stroke-width: 1; stroke-dasharray: none; stroke-linecap: butt; stroke-linejoin: miter; stroke-miterlimit: 10; fill: rgb(0,0,0); fill-rule: nonzero; opacity: 1;" transform=" matrix(1 0 0 1 0 0) " stroke-linecap="round"/>
	<path d="M 30.193 89 H 8.015 c -2.17 0 -3.929 -1.759 -3.929 -3.929 V 62.893 c 0 -2.17 1.759 -3.929 3.929 -3.929 h 22.178 c 2.17 0 3.929 1.759 3.929 3.929 v 22.178 C 34.122 87.241 32.363 89 30.193 89 z" style="stroke: none; stroke-width: 1; stroke-dasharray: none; stroke-linecap: butt; stroke-linejoin: miter; stroke-miterlimit: 10; fill: rgb(226,97,97); fill-rule: nonzero; opacity: 1;" transform=" matrix(1 0 0 1 0 0) " stroke-linecap="round"/>
	<path d="M 12.321 84.694 c -2.17 0 -3.929 -1.759 -3.929 -3.929 V 58.964 H 8.015 c -2.17 0 -3.929 1.759 -3.929 3.929 v 22.179 c 0 2.17 1.759 3.929 3.929 3.929 h 22.178 c 2.17 0 3.929 -1.759 3.929 -3.929 v -0.377 H 12.321 z" style="stroke: none; stroke-width: 1; stroke-dasharray: none; stroke-linecap: butt; stroke-linejoin: miter; stroke-miterlimit: 10; fill: rgb(201,72,72); fill-rule: nonzero; opacity: 1;" transform=" matrix(1 0 0 1 0 0) " stroke-linecap="round"/>
	<path d="M 30.193 90 H 8.015 c -2.718 0 -4.929 -2.211 -4.929 -4.929 V 62.893 c 0 -2.718 2.211 -4.929 4.929 -4.929 h 22.178 c 2.718 0 4.929 2.211 4.929 4.929 v 22.179 C 35.122 87.789 32.911 90 30.193 90 z M 8.015 59.964 c -1.615 0 -2.929 1.313 -2.929 2.929 v 22.179 C 5.086 86.687 6.4 88 8.015 88 h 22.178 c 1.615 0 2.929 -1.313 2.929 -2.929 V 62.893 c 0 -1.615 -1.314 -2.929 -2.929 -2.929 H 8.015 z" style="stroke: none; stroke-width: 1; stroke-dasharray: none; stroke-linecap: butt; stroke-linejoin: miter; stroke-miterlimit: 10; fill: rgb(0,0,0); fill-rule: nonzero; opacity: 1;" transform=" matrix(1 0 0 1 0 0) " stroke-linecap="round"/>
	<path d="M 19.1 75.479 c -0.19 0 -0.39 -0.04 -0.57 -0.109 c -0.18 -0.08 -0.35 -0.19 -0.49 -0.33 c -0.28 -0.28 -0.44 -0.66 -0.44 -1.061 c 0 -0.39 0.16 -0.779 0.44 -1.06 c 0.07 -0.07 0.15 -0.13 0.23 -0.19 c 0.08 -0.05 0.17 -0.1 0.26 -0.13 c 0.09 -0.04 0.19 -0.069 0.28 -0.09 c 0.2 -0.04 0.39 -0.04 0.59 0 c 0.09 0.021 0.19 0.05 0.28 0.09 c 0.09 0.03 0.18 0.08 0.26 0.13 c 0.08 0.061 0.16 0.12 0.23 0.19 c 0.27 0.28 0.43 0.67 0.43 1.06 c 0 0.4 -0.15 0.78 -0.43 1.061 C 19.88 75.33 19.5 75.479 19.1 75.479 z" style="stroke: none; stroke-width: 1; stroke-dasharray: none; stroke-linecap: butt; stroke-linejoin: miter; stroke-miterlimit: 10; fill: rgb(0,0,0); fill-rule: nonzero; opacity: 1;" transform=" matrix(1 0 0 1 0 0) " stroke-linecap="round"/>
	<path d="M 25.24 81.62 c -0.4 0 -0.78 -0.16 -1.06 -0.44 c -0.28 -0.28 -0.44 -0.66 -0.44 -1.06 c 0 -0.101 0.01 -0.2 0.03 -0.29 c 0.02 -0.101 0.05 -0.19 0.09 -0.28 c 0.03 -0.09 0.08 -0.18 0.14 -0.26 c 0.05 -0.09 0.11 -0.16 0.18 -0.23 c 0.56 -0.56 1.56 -0.56 2.12 0 c 0.28 0.28 0.44 0.67 0.44 1.061 c 0 0.399 -0.15 0.779 -0.44 1.06 C 26.02 81.46 25.64 81.62 25.24 81.62 z" style="stroke: none; stroke-width: 1; stroke-dasharray: none; stroke-linecap: butt; stroke-linejoin: miter; stroke-miterlimit: 10; fill: rgb(0,0,0); fill-rule: nonzero; opacity: 1;" transform=" matrix(1 0 0 1 0 0) " stroke-linecap="round"/>
	<path d="M 12.97 69.34 c -0.2 0 -0.4 -0.04 -0.58 -0.11 c -0.18 -0.08 -0.34 -0.189 -0.49 -0.33 c -0.28 -0.279 -0.43 -0.659 -0.43 -1.06 c 0 -0.39 0.16 -0.78 0.43 -1.06 c 0.36 -0.341 0.87 -0.5 1.36 -0.41 c 0.1 0.02 0.19 0.05 0.28 0.09 c 0.09 0.04 0.18 0.08 0.26 0.14 c 0.08 0.05 0.16 0.11 0.23 0.181 c 0.28 0.279 0.44 0.67 0.44 1.06 c 0 0.4 -0.16 0.78 -0.44 1.06 c -0.14 0.141 -0.31 0.25 -0.49 0.33 C 13.36 69.3 13.17 69.34 12.97 69.34 z" style="stroke: none; stroke-width: 1; stroke-dasharray: none; stroke-linecap: butt; stroke-linejoin: miter; stroke-miterlimit: 10; fill: rgb(0,0,0); fill-rule: nonzero; opacity: 1;" transform=" matrix(1 0 0 1 0 0) " stroke-linecap="round"/>
	<path d="M 12.97 81.62 c -0.41 0 -0.78 -0.16 -1.06 -0.44 c -0.29 -0.28 -0.44 -0.66 -0.44 -1.06 c 0 -0.101 0.01 -0.2 0.03 -0.29 c 0.01 -0.101 0.04 -0.19 0.08 -0.28 c 0.04 -0.09 0.09 -0.18 0.14 -0.26 c 0.05 -0.09 0.12 -0.16 0.19 -0.23 c 0.56 -0.56 1.56 -0.56 2.12 0 c 0.07 0.07 0.13 0.141 0.18 0.23 c 0.06 0.08 0.1 0.17 0.14 0.26 c 0.04 0.09 0.07 0.18 0.09 0.28 c 0.02 0.09 0.03 0.189 0.03 0.29 c 0 0.399 -0.16 0.779 -0.44 1.06 c -0.14 0.14 -0.31 0.25 -0.49 0.33 C 13.36 81.58 13.16 81.62 12.97 81.62 z" style="stroke: none; stroke-width: 1; stroke-dasharray: none; stroke-linecap: butt; stroke-linejoin: miter; stroke-miterlimit: 10; fill: rgb(0,0,0); fill-rule: nonzero; opacity: 1;" transform=" matrix(1 0 0 1 0 0) " stroke-linecap="round"/>
	<path d="M 25.24 69.34 c -0.2 0 -0.39 -0.04 -0.57 -0.11 c -0.18 -0.08 -0.35 -0.189 -0.49 -0.33 c -0.28 -0.279 -0.44 -0.659 -0.44 -1.06 c 0 -0.39 0.16 -0.78 0.44 -1.06 c 0.07 -0.07 0.15 -0.131 0.23 -0.181 c 0.08 -0.06 0.17 -0.1 0.26 -0.14 c 0.09 -0.04 0.18 -0.07 0.28 -0.09 c 0.19 -0.03 0.39 -0.04 0.59 0 c 0.09 0.02 0.19 0.05 0.28 0.09 s 0.17 0.08 0.26 0.14 c 0.08 0.05 0.15 0.11 0.22 0.181 c 0.28 0.279 0.44 0.67 0.44 1.06 c 0 0.4 -0.15 0.78 -0.44 1.06 c -0.14 0.141 -0.3 0.25 -0.48 0.33 C 25.63 69.3 25.44 69.34 25.24 69.34 z" style="stroke: none; stroke-width: 1; stroke-dasharray: none; stroke-linecap: butt; stroke-linejoin: miter; stroke-miterlimit: 10; fill: rgb(0,0,0); fill-rule: nonzero; opacity: 1;" transform=" matrix(1 0 0 1 0 0) " stroke-linecap="round"/>
</g>
</svg>