<svg xmlns="http://www.w3.org/2000/svg" xml:space="preserve" width="256" height="256" viewBox="0 0 256 256"><g fill="none" stroke-miterlimit="10" stroke-width="0" transform="translate(1.407 1.407)scale(2.81)"><path fill="#e26161" d="m71.647 77.914-20.366-8.781a3.93 3.93 0 0 1-2.052-5.163l8.781-20.366a3.93 3.93 0 0 1 5.163-2.052l20.366 8.781a3.93 3.93 0 0 1 2.052 5.163L76.81 75.862a3.93 3.93 0 0 1-5.163 2.052"/><path fill="#c94848" d="M56.94 66.883a3.93 3.93 0 0 1-2.052-5.163L63.52 41.7l-.346-.149a3.93 3.93 0 0 0-5.163 2.052L49.23 63.969a3.93 3.93 0 0 0 2.052 5.163l20.366 8.781a3.93 3.93 0 0 0 5.163-2.052l.149-.346z"/><path fill="#000" d="M73.202 79.237a4.9 4.9 0 0 1-1.951-.406l-20.365-8.78a4.934 4.934 0 0 1-2.574-6.478l8.78-20.366a4.936 4.936 0 0 1 6.478-2.575l20.365 8.782c1.21.521 2.144 1.481 2.63 2.705s.467 2.563-.055 3.772l-8.781 20.365a4.9 4.9 0 0 1-2.705 2.629 4.9 4.9 0 0 1-1.822.352M61.622 42.23a2.93 2.93 0 0 0-2.694 1.769l-8.78 20.365a2.934 2.934 0 0 0 1.53 3.851l20.365 8.78h.001a2.9 2.9 0 0 0 2.24.032 2.9 2.9 0 0 0 1.608-1.563L84.674 55.1c.31-.719.321-1.515.032-2.241a2.9 2.9 0 0 0-1.563-1.608L62.778 42.47a2.9 2.9 0 0 0-1.156-.24"/><path fill="#000" d="M67.41 61.229c-.4 0-.78-.149-1.061-.439a1.5 1.5 0 0 1-.41-1.351c.021-.1.051-.189.08-.279.04-.091.09-.181.141-.261.06-.08.12-.159.189-.229.07-.07.15-.13.23-.19.08-.05.17-.1.26-.13a1.42 1.42 0 0 1 1.139 0c.09.03.181.08.261.13.079.061.159.12.229.19s.13.149.19.229c.05.08.1.17.13.261a1.4 1.4 0 0 1 .12.569c0 .4-.16.78-.44 1.061a1.45 1.45 0 0 1-1.058.439m3.21 8.071c-.2 0-.4-.04-.58-.11a1.6 1.6 0 0 1-.48-.33c-.29-.29-.45-.659-.45-1.06s.16-.78.45-1.06a1.4 1.4 0 0 1 .221-.19c.079-.05.17-.1.26-.14.09-.03.189-.061.279-.08.2-.04.4-.04.591 0 .1.02.189.05.279.08.091.04.181.09.261.14.08.06.159.12.229.19a1.495 1.495 0 0 1 0 2.12c-.14.141-.31.25-.49.33-.18.07-.371.11-.57.11M64.2 53.17c-.4 0-.771-.16-1.061-.45a1.4 1.4 0 0 1-.32-.479 1.48 1.48 0 0 1 .32-1.632c.561-.569 1.57-.569 2.12 0 .28.271.44.66.44 1.061a1.4 1.4 0 0 1-.44 1.049q-.21.225-.479.33c-.18.081-.381.121-.58.121"/><path fill="#758bde" d="M65.637 83.618H20.262v-6.935a6.465 6.465 0 0 1 6.465-6.465h32.444a6.465 6.465 0 0 1 6.465 6.465z"/><path fill="#5468b2" d="M28.912 79.312a4.344 4.344 0 0 1-4.344-4.344v-2.591c0-.654.099-1.285.28-1.88a6.47 6.47 0 0 0-4.585 6.186v6.935h45.375v-4.306z"/><path fill="#000" d="M65.637 84.618H20.262a1 1 0 0 1-1-1v-6.936c0-4.116 3.349-7.466 7.465-7.466h32.444c4.116 0 7.465 3.35 7.465 7.466v6.936a1 1 0 0 1-.999 1m-44.375-2h43.375v-5.936a5.47 5.47 0 0 0-5.465-5.466H26.728a5.47 5.47 0 0 0-5.465 5.466v5.936z"/><path fill="#758bde" d="M48.6 21.77H37.3l-6.46 48.45h24.22z"/><path fill="#5468b2" d="m37.012 58.921 4.953-37.147H37.3l-6.459 48.443h24.215l-.718-5.382H42.19a5.224 5.224 0 0 1-5.178-5.914"/><path fill="#000" d="M55.058 71.217H30.842a.998.998 0 0 1-.991-1.132l6.458-48.443a1 1 0 0 1 .991-.868h11.298a1 1 0 0 1 .991.868l6.459 48.443a1.002 1.002 0 0 1-.99 1.132m-23.074-2h21.931l-6.192-46.442h-9.547z"/><circle cx="42.953" cy="12.683" r="11.683" fill="#758bde"/><path fill="#5468b2" d="M37.576 14.919a11.63 11.63 0 0 1-2.003-6.542c0-2.12.573-4.102 1.561-5.816-3.503 2.017-5.866 5.79-5.866 10.122 0 2.424.739 4.676 2.003 6.542H52.63a11.6 11.6 0 0 0 1.781-4.306z"/><path fill="#000" d="M42.95 25.365c-6.994 0-12.683-5.689-12.683-12.683S35.956 0 42.95 0s12.682 5.689 12.682 12.683-5.69 12.682-12.682 12.682M42.95 2c-5.891 0-10.683 4.792-10.683 10.683s4.792 10.683 10.683 10.683c5.89 0 10.682-4.792 10.682-10.683S48.84 2 42.95 2"/><path fill="#758bde" d="M53.882 26.748H32.017a3.762 3.762 0 0 1 0-7.524h21.864a3.761 3.761 0 1 1 .001 7.524"/><path fill="#5468b2" d="M36.323 22.443a3.75 3.75 0 0 1-3.707-3.218h-.599a3.762 3.762 0 1 0 0 7.524h21.864a3.76 3.76 0 0 0 3.762-3.762c0-.186-.029-.365-.055-.544z"/><path fill="#000" d="M53.882 27.749H32.017c-2.625 0-4.761-2.136-4.761-4.762s2.136-4.762 4.761-4.762h21.865c2.626 0 4.762 2.136 4.762 4.762s-2.136 4.762-4.762 4.762m-21.865-7.524c-1.522 0-2.761 1.239-2.761 2.762s1.239 2.762 2.761 2.762h21.865c1.522 0 2.762-1.239 2.762-2.762s-1.239-2.762-2.762-2.762z"/><path fill="#e26161" d="M30.193 89H8.015a3.93 3.93 0 0 1-3.929-3.929V62.893a3.93 3.93 0 0 1 3.929-3.929h22.178a3.93 3.93 0 0 1 3.929 3.929v22.178A3.93 3.93 0 0 1 30.193 89"/><path fill="#c94848" d="M12.321 84.694a3.93 3.93 0 0 1-3.929-3.929V58.964h-.377a3.93 3.93 0 0 0-3.929 3.929v22.179a3.93 3.93 0 0 0 3.929 3.929h22.178a3.93 3.93 0 0 0 3.929-3.929v-.377H12.321z"/><path fill="#000" d="M30.193 90H8.015a4.934 4.934 0 0 1-4.929-4.929V62.893a4.934 4.934 0 0 1 4.929-4.929h22.178a4.934 4.934 0 0 1 4.929 4.929v22.179A4.934 4.934 0 0 1 30.193 90M8.015 59.964a2.93 2.93 0 0 0-2.929 2.929v22.179A2.93 2.93 0 0 0 8.015 88h22.178a2.93 2.93 0 0 0 2.929-2.929V62.893a2.93 2.93 0 0 0-2.929-2.929z"/><path fill="#000" d="M19.1 75.479c-.19 0-.39-.04-.57-.109-.18-.08-.35-.19-.49-.33a1.5 1.5 0 0 1 .23-2.311c.08-.05.17-.1.26-.13a1.47 1.47 0 0 1 1.15 0c.09.03.18.08.26.13.08.061.16.12.23.19.27.28.43.67.43 1.06 0 .4-.15.78-.43 1.061-.29.29-.67.439-1.07.439m6.14 6.141a1.5 1.5 0 0 1-1.47-1.79c.02-.101.05-.19.09-.28.03-.09.08-.18.14-.26.05-.09.11-.16.18-.23.56-.56 1.56-.56 2.12 0 .28.28.44.67.44 1.061 0 .399-.15.779-.44 1.06-.28.279-.66.439-1.06.439M12.97 69.34c-.2 0-.4-.04-.58-.11a1.7 1.7 0 0 1-.49-.33 1.5 1.5 0 0 1-.43-1.06c0-.39.16-.78.43-1.06.36-.341.87-.5 1.36-.41.1.02.19.05.28.09s.18.08.26.14c.08.05.16.11.23.181a1.5 1.5 0 0 1 0 2.12c-.14.141-.31.25-.49.33-.18.069-.37.109-.57.109m0 12.28c-.41 0-.78-.16-1.06-.44a1.46 1.46 0 0 1-.41-1.35c.01-.101.04-.19.08-.28s.09-.18.14-.26c.05-.09.12-.16.19-.23.56-.56 1.56-.56 2.12 0 .07.07.13.141.18.23.06.08.1.17.14.26s.07.18.09.28q.03.137.03.29c0 .399-.16.779-.44 1.06-.14.14-.31.25-.49.33-.18.07-.38.11-.57.11m12.27-12.28c-.2 0-.39-.04-.57-.11-.18-.08-.35-.189-.49-.33a1.495 1.495 0 0 1 0-2.12c.07-.07.15-.131.23-.181.08-.06.17-.1.26-.14s.18-.07.28-.09c.19-.03.39-.04.59 0a1.7 1.7 0 0 1 .54.23 1.51 1.51 0 0 1 .66 1.241c0 .4-.15.78-.44 1.06q-.21.21-.48.33c-.19.07-.38.11-.58.11"/></g></svg>